<svg width="162" height="48" viewBox="0 0 162 48" fill="none" xmlns="http://www.w3.org/2000/svg">
<path d="M156 0H6C2.68629 0 0 2.68629 0 6V42C0 45.3137 2.68629 48 6 48H156C159.314 48 162 45.3137 162 42V6C162 2.68629 159.314 0 156 0Z" fill="black"/>
<path d="M38.5364 23.1756C38.5032 19.4905 41.5537 17.6977 41.6932 17.6143C39.9656 15.0954 37.2878 14.7513 36.3468 14.7238C34.0978 14.4872 31.9163 16.0696 30.7706 16.0696C29.6021 16.0696 27.8379 14.7467 25.9365 14.7856C23.4897 14.8233 21.2006 16.2399 19.9452 18.4398C17.3543 22.9252 19.2866 29.5167 21.7689 33.1423C23.0106 34.918 24.4615 36.9006 26.3607 36.8308C28.2186 36.7542 28.9126 35.6463 31.1548 35.6463C33.3764 35.6463 34.0281 36.8308 35.9649 36.7863C37.959 36.7542 39.2144 35.0026 40.4126 33.2109C41.8476 31.1758 42.4238 29.1714 42.4467 29.0685C42.3998 29.0525 38.5741 27.5924 38.5364 23.1756Z" fill="white"/>
<path d="M34.8773 12.3388C35.8766 11.0891 36.5603 9.38892 36.3705 7.66357C34.9242 7.7276 33.1154 8.66402 32.0738 9.88628C31.1522 10.9633 30.329 12.7287 30.5416 14.3889C32.1664 14.5101 33.8345 13.5691 34.8773 12.3388Z" fill="white"/>
<path d="M65.4239 36.5758H62.8273L61.4049 32.1064H56.461L55.1061 36.5758H52.5781L57.4763 21.3599H60.5017L65.4239 36.5758ZM60.9762 30.2313L59.6899 26.258C59.5538 25.8522 59.2988 24.8963 58.9227 23.3916H58.8769C58.7272 24.0388 58.4859 24.9946 58.1543 26.258L56.8909 30.2313H60.9762Z" fill="white"/>
<path d="M78.0209 30.9551C78.0209 32.8211 77.5167 34.296 76.5083 35.3788C75.605 36.3427 74.4834 36.824 73.1445 36.824C71.6993 36.824 70.6611 36.3049 70.0288 35.2667H69.9831V41.0465H67.5454V29.216C67.5454 28.043 67.5145 26.839 67.4551 25.6042H69.5989L69.735 27.3432H69.7807C70.5936 26.0329 71.8273 25.3789 73.4829 25.3789C74.7772 25.3789 75.8577 25.89 76.7221 26.9133C77.5887 27.9378 78.0209 29.2846 78.0209 30.9551ZM75.5375 31.0443C75.5375 29.9764 75.2974 29.096 74.8149 28.4031C74.2878 27.6805 73.5801 27.3192 72.6928 27.3192C72.0914 27.3192 71.5449 27.5204 71.0567 27.9172C70.5673 28.3174 70.2472 28.8399 70.0974 29.487C70.0219 29.7889 69.9842 30.0358 69.9842 30.2302V32.0596C69.9842 32.8577 70.2289 33.5311 70.7182 34.0811C71.2076 34.631 71.8433 34.9054 72.6254 34.9054C73.5435 34.9054 74.2581 34.551 74.7692 33.8444C75.2814 33.1367 75.5375 32.2037 75.5375 31.0443Z" fill="white"/>
<path d="M90.6389 30.9551C90.6389 32.8211 90.1347 34.296 89.1251 35.3788C88.223 36.3427 87.1014 36.824 85.7625 36.824C84.3173 36.824 83.2791 36.3049 82.6479 35.2667H82.6022V41.0465H80.1645V29.216C80.1645 28.043 80.1337 26.839 80.0742 25.6042H82.218L82.3541 27.3432H82.3998C83.2116 26.0329 84.4453 25.3789 86.1021 25.3789C87.3952 25.3789 88.4757 25.89 89.3424 26.9133C90.2056 27.9378 90.6389 29.2846 90.6389 30.9551ZM88.1555 31.0443C88.1555 29.9764 87.9143 29.096 87.4318 28.4031C86.9047 27.6805 86.1992 27.3192 85.3108 27.3192C84.7083 27.3192 84.1629 27.5204 83.6735 27.9172C83.1842 28.3174 82.8652 28.8399 82.7154 29.487C82.6411 29.7889 82.6022 30.0358 82.6022 30.2302V32.0596C82.6022 32.8577 82.8469 33.5311 83.334 34.0811C83.8233 34.6299 84.459 34.9054 85.2434 34.9054C86.1615 34.9054 86.8761 34.551 87.3872 33.8444C87.8994 33.1367 88.1555 32.2037 88.1555 31.0443Z" fill="white"/>
<path d="M104.748 32.3088C104.748 33.6031 104.299 34.6561 103.397 35.4691C102.405 36.3575 101.025 36.8011 99.2521 36.8011C97.6148 36.8011 96.3022 36.4855 95.3086 35.8532L95.8734 33.8215C96.9436 34.4686 98.1179 34.7933 99.3973 34.7933C100.315 34.7933 101.03 34.5852 101.543 34.1714C102.054 33.7575 102.309 33.2018 102.309 32.5089C102.309 31.8915 102.099 31.3712 101.677 30.9493C101.258 30.5274 100.557 30.1353 99.5779 29.7728C96.9139 28.7792 95.583 27.3237 95.583 25.4097C95.583 24.1589 96.0495 23.1333 96.9836 22.3352C97.9143 21.536 99.156 21.137 100.709 21.137C102.093 21.137 103.244 21.3782 104.162 21.8596L103.552 23.8467C102.695 23.3803 101.725 23.147 100.64 23.147C99.7826 23.147 99.1126 23.3585 98.6324 23.7793C98.2265 24.1555 98.0229 24.6139 98.0229 25.157C98.0229 25.7585 98.2551 26.2558 98.7215 26.6469C99.1274 27.0082 99.8649 27.3992 100.935 27.8211C102.244 28.3482 103.206 28.9645 103.824 29.6711C104.441 30.3754 104.748 31.2569 104.748 32.3088Z" fill="white"/>
<path d="M112.809 27.4335H110.122V32.7605C110.122 34.1154 110.595 34.7923 111.544 34.7923C111.98 34.7923 112.341 34.7545 112.627 34.6791L112.694 36.5302C112.214 36.7097 111.582 36.8 110.799 36.8C109.836 36.8 109.084 36.5062 108.541 35.9196C108 35.3319 107.728 34.3463 107.728 32.9617V27.4313H106.127V25.6019H107.728V23.593L110.122 22.8704V25.6019H112.809V27.4335Z" fill="white"/>
<path d="M124.932 30.9998C124.932 32.6862 124.45 34.0709 123.487 35.1536C122.477 36.2684 121.137 36.8241 119.467 36.8241C117.857 36.8241 116.575 36.2901 115.619 35.2222C114.663 34.1543 114.186 32.8063 114.186 31.1816C114.186 29.4814 114.677 28.0888 115.664 27.006C116.648 25.9221 117.977 25.3801 119.647 25.3801C121.257 25.3801 122.553 25.9141 123.53 26.9831C124.466 28.0202 124.932 29.359 124.932 30.9998ZM122.403 31.0787C122.403 30.0668 122.187 29.199 121.749 28.4752C121.238 27.5994 120.507 27.1626 119.561 27.1626C118.581 27.1626 117.836 27.6005 117.325 28.4752C116.887 29.2001 116.671 30.0817 116.671 31.1244C116.671 32.1363 116.887 33.0041 117.325 33.7267C117.852 34.6025 118.589 35.0393 119.539 35.0393C120.469 35.0393 121.2 34.5934 121.727 33.7038C122.177 32.9664 122.403 32.0894 122.403 31.0787Z" fill="white"/>
<path d="M132.854 27.748C132.613 27.7034 132.356 27.6805 132.086 27.6805C131.229 27.6805 130.565 28.0041 130.099 28.6524C129.693 29.2241 129.489 29.9467 129.489 30.819V36.5759H127.053L127.076 29.0594C127.076 27.7948 127.045 26.6435 126.984 25.6053H129.108L129.197 27.7045H129.264C129.522 26.9831 129.927 26.4022 130.483 25.9666C131.026 25.5744 131.613 25.3789 132.245 25.3789C132.47 25.3789 132.674 25.3949 132.854 25.4235V27.748Z" fill="white"/>
<path d="M143.757 30.571C143.757 31.0078 143.728 31.3759 143.667 31.6766H136.354C136.383 32.7606 136.736 33.5895 137.415 34.1612C138.032 34.6723 138.829 34.9284 139.807 34.9284C140.89 34.9284 141.878 34.7557 142.766 34.4093L143.148 36.1015C142.11 36.5543 140.884 36.7795 139.47 36.7795C137.769 36.7795 136.433 36.2787 135.461 35.2783C134.492 34.2778 134.006 32.9344 134.006 31.249C134.006 29.5946 134.457 28.2168 135.362 27.118C136.309 25.9449 137.588 25.3584 139.198 25.3584C140.779 25.3584 141.976 25.9449 142.789 27.118C143.433 28.0499 143.757 29.2024 143.757 30.571ZM141.432 29.9387C141.448 29.2161 141.289 28.5918 140.959 28.0647C140.537 27.3867 139.888 27.0483 139.016 27.0483C138.219 27.0483 137.571 27.3787 137.076 28.0419C136.67 28.569 136.429 29.2013 136.354 29.9376H141.432V29.9387Z" fill="white"/>
<path d="M60.1718 11.9993C60.1718 13.345 59.7682 14.3581 58.9621 15.0384C58.2155 15.6661 57.1545 15.9805 55.7801 15.9805C55.0987 15.9805 54.5156 15.9508 54.0273 15.8913V8.53831C54.6642 8.43541 55.3502 8.38281 56.0911 8.38281C57.4003 8.38281 58.387 8.66751 59.0524 9.23691C59.7979 9.88062 60.1718 10.801 60.1718 11.9993ZM58.9084 12.0324C58.9084 11.1601 58.6774 10.4912 58.2155 10.0247C57.7536 9.55934 57.079 9.32609 56.1906 9.32609C55.8133 9.32609 55.492 9.35124 55.2256 9.40384V14.9938C55.3731 15.0166 55.6429 15.0269 56.0351 15.0269C56.9521 15.0269 57.6598 14.7719 58.1583 14.262C58.6568 13.7521 58.9084 13.0089 58.9084 12.0324Z" fill="white"/>
<path d="M66.8707 13.1746C66.8707 14.0036 66.634 14.6827 66.1607 15.2155C65.6645 15.7632 65.007 16.0365 64.1861 16.0365C63.3949 16.0365 62.7649 15.7747 62.295 15.2487C61.8262 14.7239 61.5918 14.0619 61.5918 13.2638C61.5918 12.4292 61.833 11.7443 62.3178 11.2126C62.8026 10.681 63.4543 10.4146 64.2753 10.4146C65.0665 10.4146 65.7022 10.6764 66.1836 11.2012C66.6409 11.7111 66.8707 12.3697 66.8707 13.1746ZM65.6279 13.2135C65.6279 12.7161 65.5204 12.2897 65.3066 11.9341C65.0551 11.5042 64.6972 11.2892 64.2318 11.2892C63.7505 11.2892 63.3846 11.5042 63.1331 11.9341C62.9181 12.2897 62.8118 12.723 62.8118 13.2352C62.8118 13.7326 62.9192 14.1591 63.1331 14.5147C63.3926 14.9446 63.7539 15.1595 64.2204 15.1595C64.6777 15.1595 65.0368 14.9411 65.2952 14.5032C65.517 14.1408 65.6279 13.7109 65.6279 13.2135Z" fill="white"/>
<path d="M75.8541 10.5244L74.1677 15.9142H73.07L72.3714 13.5738C72.1942 12.9895 72.0501 12.4087 71.9381 11.8324H71.9164C71.8123 12.4247 71.6683 13.0044 71.483 13.5738L70.741 15.9142H69.6308L68.0449 10.5244H69.2763L69.8857 13.0867C70.0332 13.6927 70.1544 14.2701 70.2516 14.8166H70.2733C70.3625 14.3661 70.51 13.7922 70.7181 13.0981L71.483 10.5256H72.4595L73.1924 13.0433C73.3696 13.6572 73.5136 14.2484 73.6246 14.8178H73.6577C73.7389 14.2632 73.8612 13.6721 74.0236 13.0433L74.6776 10.5256H75.8541V10.5244Z" fill="white"/>
<path d="M82.0642 15.9142H80.866V12.8271C80.866 11.8758 80.5047 11.4001 79.7798 11.4001C79.4242 11.4001 79.1372 11.5305 78.9143 11.7923C78.6936 12.0542 78.5815 12.3629 78.5815 12.7162V15.913H77.3833V12.0644C77.3833 11.5911 77.3684 11.0777 77.3398 10.522H78.3929L78.4489 11.3647H78.4821C78.6216 11.1029 78.8297 10.8868 79.1029 10.7141C79.4276 10.5129 79.7912 10.4111 80.1891 10.4111C80.6922 10.4111 81.1107 10.5735 81.4434 10.8994C81.8573 11.2984 82.0642 11.8941 82.0642 12.6853V15.9142Z" fill="white"/>
<path d="M85.369 15.9142H84.1719V8.05127H85.369V15.9142Z" fill="white"/>
<path d="M92.4235 13.1746C92.4235 14.0036 92.1868 14.6827 91.7134 15.2155C91.2172 15.7632 90.5586 16.0365 89.7388 16.0365C88.9465 16.0365 88.3165 15.7747 87.8477 15.2487C87.3789 14.7239 87.1445 14.0619 87.1445 13.2638C87.1445 12.4292 87.3858 11.7443 87.8706 11.2126C88.3554 10.681 89.0071 10.4146 89.8269 10.4146C90.6192 10.4146 91.2538 10.6764 91.7363 11.2012C92.1936 11.7111 92.4235 12.3697 92.4235 13.1746ZM91.1795 13.2135C91.1795 12.7161 91.072 12.2897 90.8582 11.9341C90.6078 11.5042 90.2488 11.2892 89.7846 11.2892C89.3021 11.2892 88.9362 11.5042 88.6858 11.9341C88.4708 12.2897 88.3645 12.723 88.3645 13.2352C88.3645 13.7326 88.472 14.1591 88.6858 14.5147C88.9453 14.9446 89.3066 15.1595 89.7731 15.1595C90.2305 15.1595 90.5884 14.9411 90.8468 14.5032C91.0697 14.1408 91.1795 13.7109 91.1795 13.2135Z" fill="white"/>
<path d="M98.2237 15.9141H97.1478L97.0586 15.2933H97.0254C96.6572 15.7884 96.1324 16.0365 95.451 16.0365C94.9422 16.0365 94.5306 15.873 94.2207 15.5483C93.9395 15.2533 93.7988 14.8863 93.7988 14.4506C93.7988 13.7921 94.0732 13.2901 94.6255 12.9425C95.1766 12.595 95.9518 12.4246 96.95 12.4326V12.332C96.95 11.6219 96.5772 11.2675 95.8306 11.2675C95.2989 11.2675 94.8302 11.4013 94.4254 11.6665L94.1819 10.8799C94.6827 10.57 95.3012 10.4146 96.0307 10.4146C97.4393 10.4146 98.1459 11.1577 98.1459 12.6441V14.629C98.1459 15.1675 98.1722 15.5963 98.2237 15.9141ZM96.9797 14.0619V13.2307C95.6579 13.2078 94.9971 13.5702 94.9971 14.3169C94.9971 14.5981 95.0725 14.8085 95.2269 14.9491C95.3812 15.0898 95.5779 15.1595 95.8123 15.1595C96.0753 15.1595 96.3211 15.0761 96.5452 14.9103C96.7704 14.7433 96.9088 14.5318 96.9602 14.2723C96.9728 14.214 96.9797 14.1431 96.9797 14.0619Z" fill="white"/>
<path d="M105.032 15.9142H103.969L103.913 15.0487H103.879C103.54 15.7073 102.961 16.0365 102.148 16.0365C101.499 16.0365 100.958 15.7816 100.529 15.2716C100.101 14.7617 99.8867 14.0997 99.8867 13.2867C99.8867 12.4144 100.119 11.7078 100.585 11.1681C101.037 10.665 101.59 10.4135 102.249 10.4135C102.973 10.4135 103.479 10.657 103.767 11.1452H103.79V8.05127H104.99V14.4621C104.99 14.9869 105.003 15.4706 105.032 15.9142ZM103.79 13.6412V12.7425C103.79 12.587 103.779 12.4612 103.757 12.3652C103.69 12.0771 103.544 11.8347 103.324 11.6392C103.101 11.4436 102.832 11.3453 102.522 11.3453C102.075 11.3453 101.725 11.5225 101.468 11.8781C101.213 12.2337 101.084 12.6876 101.084 13.2422C101.084 13.775 101.206 14.2072 101.452 14.5399C101.712 14.8943 102.061 15.0715 102.499 15.0715C102.893 15.0715 103.207 14.9241 103.446 14.6279C103.677 14.3547 103.79 14.0254 103.79 13.6412Z" fill="white"/>
<path d="M115.279 13.1746C115.279 14.0036 115.042 14.6827 114.569 15.2155C114.073 15.7632 113.416 16.0365 112.594 16.0365C111.804 16.0365 111.174 15.7747 110.703 15.2487C110.234 14.7239 110 14.0619 110 13.2638C110 12.4292 110.241 11.7443 110.726 11.2126C111.211 10.681 111.863 10.4146 112.685 10.4146C113.475 10.4146 114.112 10.6764 114.592 11.2012C115.049 11.7111 115.279 12.3697 115.279 13.1746ZM114.037 13.2135C114.037 12.7161 113.93 12.2897 113.716 11.9341C113.463 11.5042 113.107 11.2892 112.64 11.2892C112.16 11.2892 111.794 11.5042 111.541 11.9341C111.326 12.2897 111.22 12.723 111.22 13.2352C111.22 13.7326 111.327 14.1591 111.541 14.5147C111.801 14.9446 112.162 15.1595 112.629 15.1595C113.086 15.1595 113.446 14.9411 113.705 14.5032C113.925 14.1408 114.037 13.7109 114.037 13.2135Z" fill="white"/>
<path d="M121.723 15.9142H120.526V12.8271C120.526 11.8758 120.165 11.4001 119.439 11.4001C119.083 11.4001 118.796 11.5305 118.574 11.7923C118.353 12.0542 118.242 12.3629 118.242 12.7162V15.913H117.042V12.0644C117.042 11.5911 117.029 11.0777 117 10.522H118.052L118.108 11.3647H118.141C118.282 11.1029 118.49 10.8868 118.762 10.7141C119.088 10.5129 119.45 10.4111 119.849 10.4111C120.351 10.4111 120.77 10.5735 121.102 10.8994C121.517 11.2984 121.723 11.8941 121.723 12.6853V15.9142Z" fill="white"/>
<path d="M129.787 11.422H128.467V14.0403C128.467 14.7057 128.701 15.0385 129.166 15.0385C129.381 15.0385 129.559 15.0202 129.7 14.9824L129.73 15.8914C129.494 15.9806 129.183 16.0252 128.8 16.0252C128.326 16.0252 127.958 15.8811 127.692 15.593C127.424 15.3049 127.292 14.8201 127.292 14.1398V11.422H126.504V10.5244H127.292V9.53657L128.466 9.18213V10.5233H129.785V11.422H129.787Z" fill="white"/>
<path d="M136.13 15.9142H134.931V12.85C134.931 11.8838 134.569 11.4002 133.846 11.4002C133.29 11.4002 132.91 11.6803 132.702 12.2406C132.667 12.3583 132.646 12.5024 132.646 12.6716V15.9131H131.449V8.05127H132.646V11.2996H132.669C133.047 10.7085 133.587 10.4135 134.288 10.4135C134.784 10.4135 135.195 10.5758 135.521 10.9017C135.927 11.3076 136.13 11.9113 136.13 12.7093V15.9142Z" fill="white"/>
<path d="M142.675 12.9643C142.675 13.1792 142.659 13.3599 142.63 13.5074H139.036C139.052 14.0402 139.224 14.4461 139.557 14.7274C139.861 14.9789 140.253 15.1047 140.733 15.1047C141.265 15.1047 141.75 15.0201 142.186 14.8497L142.374 15.6821C141.863 15.9039 141.261 16.0148 140.565 16.0148C139.73 16.0148 139.073 15.769 138.597 15.2773C138.119 14.7857 137.883 14.126 137.883 13.2982C137.883 12.4852 138.103 11.8084 138.548 11.2687C139.012 10.6924 139.64 10.4043 140.433 10.4043C141.208 10.4043 141.797 10.6924 142.194 11.2687C142.516 11.726 142.675 12.292 142.675 12.9643ZM141.531 12.6544C141.54 12.2989 141.462 11.9924 141.299 11.734C141.091 11.4013 140.774 11.2344 140.346 11.2344C139.955 11.2344 139.636 11.3967 139.392 11.7226C139.193 11.9821 139.075 12.292 139.036 12.6544H141.531Z" fill="white"/>
</svg>
