<svg width="32" height="32" viewBox="0 0 32 32" fill="none" xmlns="http://www.w3.org/2000/svg">
<g clip-path="url(#clip0_208_4094)">
<path d="M28.3568 14.5516C26.7436 14.1122 25.2771 12.6073 25.3038 10.703C25.3171 9.95721 24.7705 9.34462 24.0239 9.35794C21.1042 9.39789 18.6644 6.98749 18.6644 4.05772C18.6644 3.40518 18.1978 2.85917 17.5445 2.77927C8.70542 1.66063 2.66602 9.10492 2.66602 16.0165C2.66602 23.3676 8.63876 29.3337 15.998 29.3337C23.4773 29.3337 29.4767 23.1811 29.3301 15.7768C29.3167 15.1909 28.9168 14.6981 28.3568 14.5516Z" fill="#F3B366"/>
<path d="M9.33398 17.9997C9.33398 19.1063 10.2273 19.9997 11.334 19.9997C12.4407 19.9997 13.334 19.1063 13.334 17.9997C13.334 16.893 12.4407 15.9997 11.334 15.9997C10.2273 15.9997 9.33398 16.893 9.33398 17.9997Z" fill="#603928"/>
<path d="M12.0007 11.333C12.0007 12.4397 12.894 13.333 14.0007 13.333C15.1073 13.333 16.0007 12.4397 16.0007 11.333C16.0007 10.2263 15.1073 9.33301 14.0007 9.33301C12.894 9.33301 12.0007 10.2263 12.0007 11.333Z" fill="#603928"/>
<path d="M18.6673 19.9997C18.6673 20.733 19.2673 21.333 20.0007 21.333C20.734 21.333 21.334 20.733 21.334 19.9997C21.334 19.2663 20.734 18.6663 20.0007 18.6663C19.2673 18.6663 18.6673 19.2663 18.6673 19.9997Z" fill="#603928"/>
</g>
<defs>
<clipPath id="clip0_208_4094">
<rect width="32" height="32" fill="white"/>
</clipPath>
</defs>
</svg>
