<svg width="163" height="129" viewBox="0 0 163 129" fill="none" xmlns="http://www.w3.org/2000/svg">
<path d="M182 113.187L181.982 120.016L91.2867 173.062L0 120.016L0.0182 113.189L90.7134 60.1436L182 113.187Z" fill="#94A3B8"/>
<path d="M182 113.187L181.982 120.016L91.2867 173.062L91.3071 166.234L182 113.187ZM91.3071 166.234L91.2867 173.062L0 120.016L0.0182 113.189L91.3071 166.234Z" fill="#CBD5E1"/>
<path d="M182 83.1662L181.982 89.9935L91.2867 143.039L0 89.9958L0.0182 83.1685L90.7134 30.123L182 83.1662Z" fill="#CBD5E1"/>
<path d="M182 83.166L181.982 89.9933L91.2871 143.039L91.3076 136.211L182 83.166Z" fill="#E2E8F0"/>
<path d="M91.3071 136.211L91.2867 143.041L0 89.9956L0.0182 83.166L91.3071 136.211Z" fill="#E2E8F0"/>
<path d="M182 53.1433L181.982 59.9728L91.2867 113.018L0 59.9728L0.0182 53.1455L90.7134 0.100098L182 53.1433Z" fill="#F8FAFC"/>
<path d="M182 53.1436L181.982 59.9731L91.2871 113.019L91.3076 106.191L182 53.1436Z" fill="#E2E8F0"/>
<path d="M91.3071 106.191L91.2867 113.018L0 59.9728L0.0182 53.1455L91.3071 106.191Z" fill="#E2E8F0"/>
</svg>
