<svg width="18" height="18" viewBox="0 0 18 18" fill="none" xmlns="http://www.w3.org/2000/svg">
<path d="M12.5006 11.0001H11.7106L11.4306 10.7301C12.6306 9.33014 13.2506 7.42014 12.9106 5.39014C12.4406 2.61014 10.1206 0.390137 7.32063 0.0501373C3.09063 -0.469863 -0.469374 3.09014 0.0506256 7.32014C0.390626 10.1201 2.61063 12.4401 5.39063 12.9101C7.42063 13.2501 9.33063 12.6301 10.7306 11.4301L11.0006 11.7101V12.5001L15.2506 16.7501C15.6606 17.1601 16.3306 17.1601 16.7406 16.7501C17.1506 16.3401 17.1506 15.6701 16.7406 15.2601L12.5006 11.0001ZM6.50063 11.0001C4.01063 11.0001 2.00063 8.99014 2.00063 6.50014C2.00063 4.01014 4.01063 2.00014 6.50063 2.00014C8.99063 2.00014 11.0006 4.01014 11.0006 6.50014C11.0006 8.99014 8.99063 11.0001 6.50063 11.0001Z" fill="#64748B"/>
</svg>
