<svg width="48" height="48" viewBox="0 0 48 48" fill="none" xmlns="http://www.w3.org/2000/svg">
<path d="M14.2996 33.7C13.9996 33.4 13.8496 33.05 13.8496 32.65C13.8496 32.25 13.9996 31.9 14.2996 31.6L32.8996 13H19.6996C19.2663 13 18.9079 12.8583 18.6246 12.575C18.3413 12.2917 18.1996 11.9333 18.1996 11.5C18.1996 11.0667 18.3413 10.7083 18.6246 10.425C18.9079 10.1417 19.2663 10 19.6996 10H36.4996C36.9329 10 37.2913 10.1417 37.5746 10.425C37.8579 10.7083 37.9996 11.0667 37.9996 11.5V28.3C37.9996 28.7333 37.8579 29.0917 37.5746 29.375C37.2913 29.6583 36.9329 29.8 36.4996 29.8C36.0663 29.8 35.7079 29.6583 35.4246 29.375C35.1413 29.0917 34.9996 28.7333 34.9996 28.3V15.1L16.3996 33.7C16.0996 34 15.7496 34.15 15.3496 34.15C14.9496 34.15 14.5996 34 14.2996 33.7Z" fill="#1E293B"/>
</svg>
