<svg width="162" height="48" viewBox="0 0 162 48" fill="none" xmlns="http://www.w3.org/2000/svg">
<path d="M156 0H6C2.68629 0 0 2.68629 0 6V42C0 45.3137 2.68629 48 6 48H156C159.314 48 162 45.3137 162 42V6C162 2.68629 159.314 0 156 0Z" fill="black"/>
<path d="M81.7693 26.1C80.7616 26.1048 79.778 26.4079 78.9425 26.9712C78.1069 27.5345 77.457 28.3326 77.0746 29.2649C76.6923 30.1972 76.5947 31.2219 76.7942 32.2096C76.9937 33.1974 77.4813 34.1038 78.1955 34.8147C78.9097 35.5255 79.8185 36.0089 80.8071 36.2037C81.7958 36.3986 82.82 36.2962 83.7505 35.9095C84.681 35.5228 85.4761 34.8691 86.0354 34.0309C86.5948 33.1928 86.8933 32.2077 86.8933 31.2C86.9031 30.5256 86.777 29.856 86.5227 29.2313C86.2684 28.6065 85.8909 28.0393 85.4128 27.5635C84.9347 27.0876 84.3657 26.7128 83.7398 26.4614C83.1138 26.21 82.4437 26.0871 81.7693 26.1ZM81.7693 34.296C81.1496 34.3394 80.5312 34.1953 79.9944 33.8825C79.4577 33.5697 79.0275 33.1027 78.7597 32.5422C78.4919 31.9816 78.399 31.3535 78.4929 30.7394C78.5868 30.1253 78.8633 29.5537 79.2865 29.0989C79.7096 28.644 80.2597 28.327 80.8654 28.189C81.4711 28.051 82.1043 28.0983 82.6827 28.3249C83.2611 28.5516 83.758 28.9469 84.1087 29.4597C84.4594 29.9724 84.6478 30.5788 84.6493 31.2C84.6686 31.5937 84.6089 31.9872 84.4738 32.3573C84.3386 32.7275 84.1307 33.0669 83.8623 33.3555C83.5938 33.644 83.2704 33.8759 82.9109 34.0374C82.5514 34.199 82.1633 34.2869 81.7693 34.296ZM70.5973 26.1C69.5891 26.1024 68.6043 26.4035 67.7672 26.9654C66.93 27.5272 66.2782 28.3245 65.8941 29.2567C65.5099 30.1888 65.4106 31.2138 65.6087 32.2023C65.8069 33.1909 66.2936 34.0985 67.0073 34.8105C67.721 35.5226 68.6298 36.0071 69.6187 36.2029C70.6077 36.3987 71.6325 36.297 72.5637 35.9107C73.4949 35.5243 74.2907 34.8706 74.8506 34.0322C75.4105 33.1938 75.7093 32.2082 75.7093 31.2C75.7191 30.5256 75.593 29.856 75.3387 29.2313C75.0844 28.6065 74.7069 28.0393 74.2288 27.5635C73.7507 27.0876 73.1817 26.7128 72.5558 26.4614C71.9299 26.21 71.2597 26.0871 70.5853 26.1H70.5973ZM70.5973 34.296C69.9773 34.3418 69.3579 34.1999 68.8196 33.8887C68.2814 33.5775 67.8494 33.1115 67.5797 32.5514C67.3101 31.9912 67.2153 31.3628 67.3077 30.748C67.4002 30.1333 67.6756 29.5606 68.0981 29.1045C68.5206 28.6484 69.0706 28.3301 69.6765 28.191C70.2824 28.0518 70.9162 28.0984 71.4953 28.3245C72.0744 28.5506 72.5721 28.9458 72.9234 29.4587C73.2748 29.9716 73.4636 30.5784 73.4653 31.2C73.4846 31.5937 73.4249 31.9872 73.2898 32.3573C73.1546 32.7275 72.9467 33.0669 72.6783 33.3555C72.4098 33.644 72.0864 33.8759 71.7269 34.0374C71.3674 34.199 70.9793 34.2869 70.5853 34.296H70.5973ZM57.2893 27.672V29.832H62.4733C62.392 30.8494 61.9691 31.8094 61.2733 32.556C60.7547 33.0843 60.1312 33.4982 59.4429 33.771C58.7547 34.0438 58.017 34.1695 57.2773 34.14C55.7496 34.14 54.2846 33.5332 53.2044 32.453C52.1241 31.3728 51.5173 29.9077 51.5173 28.38C51.5173 26.8524 52.1241 25.3873 53.2044 24.3071C54.2846 23.2269 55.7496 22.62 57.2773 22.62C58.7386 22.5962 60.1498 23.1529 61.2013 24.168L62.7253 22.644C62.0155 21.9253 61.1686 21.3563 60.2348 20.9708C59.3011 20.5854 58.2994 20.3913 57.2893 20.4C56.2225 20.3585 55.1583 20.5328 54.1604 20.9124C53.1626 21.292 52.2517 21.8692 51.4822 22.6093C50.7127 23.3493 50.1006 24.2372 49.6825 25.2195C49.2644 26.2018 49.0488 27.2584 49.0488 28.326C49.0488 29.3937 49.2644 30.4503 49.6825 31.4326C50.1006 32.4149 50.7127 33.3027 51.4822 34.0428C52.2517 34.7829 53.1626 35.3601 54.1604 35.7397C55.1583 36.1193 56.2225 36.2936 57.2893 36.252C58.3164 36.2985 59.3416 36.1243 60.2958 35.7414C61.25 35.3585 62.1112 34.7756 62.8213 34.032C64.0785 32.6508 64.7497 30.835 64.6933 28.968C64.6972 28.5132 64.657 28.0591 64.5733 27.612L57.2893 27.672ZM111.661 29.352C111.348 28.4313 110.763 27.6274 109.983 27.0467C109.203 26.4659 108.265 26.1358 107.293 26.1C106.637 26.0988 105.987 26.2321 105.384 26.4919C104.782 26.7516 104.238 27.1323 103.789 27.6103C103.339 28.0883 102.992 28.6535 102.769 29.2709C102.546 29.8883 102.452 30.5449 102.493 31.2C102.479 31.8707 102.599 32.5375 102.848 33.1605C103.097 33.7835 103.469 34.3499 103.942 34.8259C104.414 35.302 104.978 35.6779 105.599 35.9311C106.221 36.1844 106.887 36.3099 107.557 36.3C108.397 36.3046 109.224 36.1009 109.965 35.7071C110.707 35.3134 111.339 34.742 111.805 34.044L110.065 32.844C109.806 33.277 109.438 33.6351 108.998 33.8833C108.559 34.1315 108.062 34.2613 107.557 34.26C107.037 34.2799 106.524 34.1428 106.083 33.8667C105.642 33.5907 105.294 33.1883 105.085 32.712L111.913 29.892L111.661 29.352ZM104.701 31.056C104.677 30.6849 104.727 30.3126 104.848 29.961C104.97 29.6094 105.16 29.2855 105.408 29.0084C105.656 28.7312 105.957 28.5064 106.293 28.3469C106.629 28.1875 106.994 28.0968 107.365 28.08C107.752 28.0545 108.138 28.1433 108.475 28.3353C108.813 28.5273 109.086 28.8141 109.261 29.16L104.701 31.056ZM99.1573 36H101.401V21H99.1573V36ZM95.4853 27.24H95.4013C95.0631 26.8619 94.6488 26.5595 94.1856 26.3527C93.7223 26.1459 93.2206 26.0394 92.7133 26.04C91.4019 26.1036 90.1653 26.6694 89.2597 27.6199C88.354 28.5705 87.8489 29.8331 87.8489 31.146C87.8489 32.459 88.354 33.7216 89.2597 34.6721C90.1653 35.6227 91.4019 36.1885 92.7133 36.252C93.2218 36.2606 93.726 36.1576 94.1904 35.9503C94.6548 35.7429 95.0681 35.4363 95.4013 35.052H95.4733V35.784C95.4733 37.74 94.4293 38.784 92.7493 38.784C92.1898 38.7709 91.6468 38.5916 91.1894 38.269C90.7321 37.9463 90.3812 37.4948 90.1813 36.972L88.2253 37.788C88.5935 38.6837 89.2208 39.4489 90.0269 39.9855C90.833 40.5222 91.7809 40.8058 92.7493 40.8C95.3773 40.8 97.5493 39.252 97.5493 35.484V26.4H95.4853V27.24ZM92.9173 34.296C92.1432 34.2278 91.4228 33.8721 90.898 33.2991C90.3732 32.726 90.0821 31.9771 90.0821 31.2C90.0821 30.423 90.3732 29.6741 90.898 29.101C91.4228 28.528 92.1432 28.1723 92.9173 28.104C93.3011 28.1237 93.677 28.22 94.023 28.3873C94.369 28.5545 94.6781 28.7893 94.9319 29.0778C95.1858 29.3664 95.3793 29.7028 95.5011 30.0672C95.623 30.4317 95.6706 30.8169 95.6413 31.2C95.674 31.5849 95.6284 31.9723 95.5071 32.339C95.3858 32.7057 95.1914 33.044 94.9356 33.3334C94.6799 33.6228 94.3681 33.8573 94.0191 34.0228C93.6701 34.1882 93.2912 34.2812 92.9053 34.296H92.9173ZM122.173 21H116.809V36H119.053V30.312H122.185C122.825 30.358 123.467 30.2717 124.072 30.0585C124.676 29.8453 125.231 29.5099 125.7 29.073C126.169 28.6362 126.544 28.1073 126.8 27.5194C127.056 26.9316 127.188 26.2972 127.188 25.656C127.188 25.0149 127.056 24.3805 126.8 23.7926C126.544 23.2048 126.169 22.6759 125.7 22.2391C125.231 21.8022 124.676 21.4667 124.072 21.2536C123.467 21.0404 122.825 20.9541 122.185 21H122.173ZM122.173 28.2H119.041V23.088H122.221C122.904 23.088 123.559 23.3592 124.041 23.842C124.524 24.3247 124.795 24.9794 124.795 25.662C124.795 26.3447 124.524 26.9994 124.041 27.4821C123.559 27.9649 122.904 28.236 122.221 28.236L122.173 28.2ZM136.009 26.04C135.192 25.9912 134.379 26.1821 133.669 26.5893C132.959 26.9965 132.384 27.6022 132.013 28.332L134.005 29.16C134.202 28.7981 134.499 28.501 134.861 28.305C135.223 28.109 135.635 28.0225 136.045 28.056C136.33 28.0228 136.619 28.0466 136.894 28.126C137.17 28.2055 137.427 28.3391 137.65 28.5189C137.874 28.6987 138.059 28.9213 138.196 29.1735C138.332 29.4258 138.417 29.7027 138.445 29.988V30.144C137.725 29.7624 136.921 29.5646 136.105 29.568C133.957 29.568 131.785 30.768 131.785 32.94C131.806 33.4032 131.92 33.8573 132.12 34.2757C132.32 34.6941 132.601 35.0681 132.948 35.3758C133.295 35.6835 133.7 35.9185 134.139 36.0669C134.578 36.2153 135.043 36.2742 135.505 36.24C136.07 36.2806 136.636 36.1683 137.143 35.915C137.649 35.6616 138.079 35.2765 138.385 34.8H138.457V36H140.617V30.228C140.617 27.6 138.625 26.076 136.069 26.076L136.009 26.04ZM135.733 34.26C135.001 34.26 133.981 33.888 133.981 32.988C133.981 31.788 135.253 31.392 136.381 31.392C137.094 31.3745 137.799 31.5485 138.421 31.896C138.346 32.5457 138.039 33.1464 137.556 33.5874C137.073 34.0284 136.447 34.2801 135.793 34.296L135.733 34.26ZM148.489 26.4L145.921 32.904H145.849L143.185 26.4H140.785L144.781 35.496L142.501 40.548H144.841L150.985 26.4H148.489ZM128.317 36H130.561V21H128.317V36Z" fill="white"/>
<path d="M56.8303 12.3631C56.8507 12.8032 56.7815 13.2429 56.6268 13.6555C56.4721 14.0681 56.2351 14.4449 55.9303 14.7631C55.59 15.1166 55.179 15.3944 54.7242 15.5784C54.2693 15.7625 53.7807 15.8486 53.2903 15.8311C52.5463 15.8253 51.8206 15.6 51.204 15.1835C50.5875 14.767 50.1075 14.1778 49.8244 13.4898C49.5412 12.8017 49.4674 12.0454 49.6122 11.3156C49.757 10.5858 50.1139 9.91493 50.6383 9.38709C50.983 9.03523 51.3962 8.75784 51.8523 8.57207C52.3085 8.38631 52.7979 8.29612 53.2903 8.30709C53.7976 8.3054 54.2999 8.4075 54.7663 8.60709C55.2006 8.78224 55.5871 9.05776 55.8943 9.41109L55.2583 10.0471C55.0188 9.7622 54.7163 9.53692 54.3748 9.38906C54.0332 9.24119 53.662 9.17479 53.2903 9.19509C52.9155 9.19325 52.5442 9.26713 52.1986 9.41228C51.853 9.55743 51.5403 9.77088 51.2792 10.0398C51.0181 10.3088 50.814 10.6277 50.6791 10.9774C50.5443 11.3271 50.4814 11.7005 50.4943 12.0751C50.4865 12.6345 50.6445 13.1836 50.9483 13.6533C51.2522 14.123 51.6884 14.4921 52.2019 14.7142C52.7153 14.9363 53.283 15.0013 53.8334 14.9011C54.3838 14.8009 54.8921 14.5399 55.2943 14.1511C55.6636 13.7509 55.8766 13.2313 55.8943 12.6871H53.2903V11.8231H56.7823C56.8143 12.0013 56.8304 12.182 56.8303 12.3631ZM62.3263 9.36309H59.0863V11.6431H62.0383V12.5071H59.0863V14.7871H62.3263V15.6751H58.1263V8.47509H62.3263V9.36309ZM66.2623 15.6751H65.3383V9.36309H63.3223V8.47509H68.3263V9.36309H66.2623V15.6751ZM71.8543 15.6751V8.47509H72.7783V15.6751H71.8543ZM76.8823 15.6751H75.9583V9.36309H73.9423V8.47509H78.8863V9.36309H76.8823V15.6751ZM88.2583 14.7391C87.5568 15.4367 86.6077 15.8283 85.6183 15.8283C84.629 15.8283 83.6799 15.4367 82.9783 14.7391C82.2965 14.0173 81.9166 13.062 81.9166 12.0691C81.9166 11.0762 82.2965 10.1209 82.9783 9.39909C83.3241 9.05079 83.7354 8.77434 84.1885 8.5857C84.6416 8.39705 85.1275 8.29993 85.6183 8.29993C86.1091 8.29993 86.5951 8.39705 87.0482 8.5857C87.5013 8.77434 87.9126 9.05079 88.2583 9.39909C88.9429 10.1195 89.3246 11.0753 89.3246 12.0691C89.3246 13.0629 88.9429 14.0187 88.2583 14.7391ZM83.6623 14.1391C84.1819 14.6564 84.8852 14.9469 85.6183 14.9469C86.3515 14.9469 87.0548 14.6564 87.5743 14.1391C88.087 13.5739 88.371 12.8382 88.371 12.0751C88.371 11.312 88.087 10.5763 87.5743 10.0111C87.0548 9.49375 86.3515 9.20328 85.6183 9.20328C84.8852 9.20328 84.1819 9.49375 83.6623 10.0111C83.1497 10.5763 82.8657 11.312 82.8657 12.0751C82.8657 12.8382 83.1497 13.5739 83.6623 14.1391ZM90.6223 15.6751V8.47509H91.7503L95.2543 14.0791V8.47509H96.1783V15.6751H95.2183L91.5583 9.80709V15.6751H90.6223Z" fill="white"/>
<path fill-rule="evenodd" clip-rule="evenodd" d="M85.6183 8.41993C85.1434 8.41993 84.6731 8.51392 84.2346 8.69648C83.7966 8.87885 83.399 9.14601 83.0646 9.48258C82.4044 10.1819 82.0366 11.1073 82.0366 12.0691C82.0366 13.0308 82.4043 13.956 83.0643 14.6553C83.7432 15.3298 84.6613 15.7083 85.6183 15.7083C86.5754 15.7083 87.4936 15.3297 88.1725 14.6552C88.8352 13.9572 89.2046 13.0315 89.2046 12.0691C89.2046 11.1065 88.8351 10.1807 88.1723 9.48274C87.8378 9.14609 87.4401 8.87888 87.0021 8.69648C86.5636 8.51392 86.0933 8.41993 85.6183 8.41993ZM84.1424 8.47492C84.6101 8.28018 85.1117 8.17993 85.6183 8.17993C86.125 8.17993 86.6266 8.28018 87.0943 8.47492C87.562 8.66965 87.9866 8.95501 88.3435 9.31455L88.3454 9.31641C89.0511 10.0591 89.4446 11.0445 89.4446 12.0691C89.4446 13.0936 89.0511 14.0791 88.3453 14.8218L88.343 14.8242C87.619 15.5442 86.6394 15.9483 85.6183 15.9483C84.5973 15.9483 83.6177 15.5442 82.8937 14.8242L82.8911 14.8215C82.1881 14.0775 81.7966 13.0927 81.7966 12.0691C81.7966 11.0455 82.1882 10.0607 82.8911 9.31669L82.8932 9.31452C83.2501 8.95498 83.6747 8.66965 84.1424 8.47492ZM53.2877 8.42706C52.8117 8.41646 52.3386 8.50364 51.8976 8.68321C51.4566 8.86278 51.0572 9.13093 50.7241 9.47106L50.7235 9.47167C50.2157 9.98275 49.8701 10.6323 49.7299 11.339C49.5897 12.0456 49.6612 12.7779 49.9353 13.4441C50.2095 14.1103 50.6742 14.6808 51.2712 15.0841C51.8682 15.4873 52.5709 15.7055 53.2913 15.7111L53.2946 15.7111C53.7681 15.728 54.2399 15.6449 54.6792 15.4672C55.1184 15.2895 55.5152 15.0213 55.8438 14.68C56.1373 14.3735 56.3654 14.0107 56.5144 13.6134C56.6634 13.216 56.7301 12.7926 56.7105 12.3686L56.8303 12.3631L56.7103 12.363C56.7104 12.2225 56.7003 12.0821 56.6802 11.9431H53.4103V12.5671H56.0183L56.0143 12.691C55.9956 13.264 55.7713 13.8111 55.3825 14.2325L55.3779 14.2375C54.9586 14.6428 54.4286 14.9147 53.8549 15.0191C53.2812 15.1236 52.6894 15.0558 52.1542 14.8243C51.619 14.5929 51.1644 14.2081 50.8476 13.7185C50.5314 13.2297 50.3667 12.6584 50.3743 12.0763C50.3612 11.6865 50.4268 11.2981 50.5672 10.9342C50.7078 10.5694 50.9207 10.2368 51.1931 9.95623C51.4654 9.6757 51.7916 9.45305 52.1521 9.30164C52.5115 9.15069 52.8976 9.07365 53.2874 9.07508C53.6764 9.05438 54.0649 9.12415 54.4225 9.27893C54.7411 9.41688 55.0273 9.61898 55.2636 9.87213L55.7288 9.40693C55.4471 9.10756 55.1035 8.87248 54.7215 8.71838L54.7191 8.71744C54.2678 8.52428 53.7817 8.42546 53.2907 8.42709L53.2877 8.42706ZM56.9503 12.3603C56.9711 12.8158 56.8992 13.2707 56.7391 13.6976C56.5787 14.1254 56.333 14.5162 56.017 14.8461C55.665 15.2118 55.2397 15.4993 54.7692 15.6897C54.2992 15.8798 53.7944 15.9689 53.2877 15.9511C52.5207 15.9447 51.7725 15.7123 51.1368 15.2829C50.5007 14.8532 50.0056 14.2454 49.7134 13.5355C49.4212 12.8256 49.3451 12.0452 49.4945 11.2922C49.6439 10.5394 50.012 9.84736 50.5529 9.30282C50.909 8.93937 51.3358 8.65284 51.8071 8.46093C52.278 8.26917 52.7832 8.17597 53.2915 8.18709C53.8142 8.18556 54.3318 8.29077 54.8124 8.49628C55.2637 8.67854 55.6655 8.96504 55.9849 9.33236L56.0583 9.41681L55.2507 10.2245L55.1665 10.1243C54.939 9.85367 54.6516 9.63965 54.3271 9.49918C54.0026 9.3587 53.6499 9.29562 53.2969 9.31491L53.2898 9.3153C52.9311 9.31354 52.5757 9.38402 52.2451 9.52292C51.9144 9.66181 51.6151 9.86606 51.3653 10.1234C51.1154 10.3808 50.9201 10.6859 50.7911 11.0206C50.662 11.3552 50.6019 11.7125 50.6143 12.071L50.6145 12.0768C50.6069 12.6124 50.7581 13.1383 51.0491 13.5881C51.3401 14.0379 51.7578 14.3914 52.2495 14.6041C52.7412 14.8167 53.2849 14.879 53.8119 14.783C54.3378 14.6873 54.8237 14.4382 55.2085 14.0672C55.5287 13.7191 55.7242 13.2759 55.7668 12.8071H53.1703V11.7031H56.8827L56.9005 11.8019C56.9336 11.9862 56.9502 12.1731 56.9503 12.3603ZM58.0063 8.35509H62.4463V9.48309H59.2063V11.5231H62.1583V12.6271H59.2063V14.6671H62.4463V15.7951H58.0063V8.35509ZM58.2463 8.59509V15.5551H62.2063V14.9071H58.9663V12.3871H61.9183V11.7631H58.9663V9.24309H62.2063V8.59509H58.2463ZM63.2023 8.35509H68.4463V9.48309H66.3823V15.7951H65.2183V9.48309H63.2023V8.35509ZM63.4423 8.59509V9.24309H65.4583V15.5551H66.1423V9.24309H68.2063V8.59509H63.4423ZM71.7343 8.35509H72.8983V15.7951H71.7343V8.35509ZM71.9743 8.59509V15.5551H72.6583V8.59509H71.9743ZM73.8223 8.35509H79.0063V9.48309H77.0023V15.7951H75.8383V9.48309H73.8223V8.35509ZM74.0623 8.59509V9.24309H76.0783V15.5551H76.7623V9.24309H78.7663V8.59509H74.0623ZM90.5023 8.35509H91.8168L95.1343 13.6608V8.35509H96.2983V15.7951H95.1518L91.6783 10.2262V15.7951H90.5023V8.35509ZM90.7423 8.59509V15.5551H91.4383V9.38795L95.2849 15.5551H96.0583V8.59509H95.3743V14.4974L91.6838 8.59509H90.7423ZM83.5777 9.92606C84.1197 9.38632 84.8534 9.08328 85.6183 9.08328C86.3833 9.08328 87.117 9.38632 87.659 9.92606L87.6633 9.93036C88.196 10.5176 88.491 11.2822 88.491 12.0751C88.491 12.868 88.1959 13.6325 87.6632 14.2197L87.6591 14.2242C87.1171 14.764 86.3833 15.0669 85.6183 15.0669C84.8534 15.0669 84.1197 14.7639 83.5777 14.2241L83.6623 14.1391L83.5735 14.2197C83.0407 13.6325 82.7457 12.868 82.7457 12.0751C82.7457 11.2822 83.0407 10.5177 83.5735 9.93047L83.5777 9.92606ZM83.7492 14.0562C84.246 14.5498 84.9179 14.8269 85.6183 14.8269C86.3188 14.8269 86.9907 14.5498 87.4875 14.0562C87.9789 13.5134 88.251 12.8073 88.251 12.0751C88.251 11.3428 87.9789 10.6368 87.4875 10.094C86.9907 9.60036 86.3188 9.32328 85.6183 9.32328C84.9179 9.32328 84.246 9.60036 83.7492 10.094C83.2578 10.6368 82.9857 11.3428 82.9857 12.0751C82.9857 12.8073 83.2578 13.5134 83.7492 14.0562Z" fill="white"/>
<path d="M12.529 9.04811C12.1378 9.51744 11.9404 10.1183 11.977 10.7281V37.2721C11.9404 37.882 12.1378 38.4828 12.529 38.9521L12.613 39.0361L27.481 24.1801V23.8321L12.613 8.96411L12.529 9.04811Z" fill="url(#paint0_linear_122_6606)"/>
<path d="M32.4005 29.1363L27.4805 24.1803V23.8323L32.4005 18.8643L32.5085 18.9243L38.4005 22.2723C40.0805 23.2203 40.0805 24.7803 38.4005 25.7403L32.5325 29.0763L32.4005 29.1363Z" fill="url(#paint1_linear_122_6606)"/>
<path d="M32.5453 29.0642L27.4813 24.0002L12.5293 38.9522C12.8717 39.2533 13.3086 39.4252 13.7643 39.4384C14.2201 39.4515 14.6661 39.305 15.0253 39.0242L32.5573 29.0642" fill="url(#paint2_linear_122_6606)"/>
<path d="M32.5456 18.9362L15.0136 8.9762C14.6544 8.69542 14.2083 8.54895 13.7526 8.56209C13.2968 8.57524 12.86 8.74718 12.5176 9.04821L27.4816 24.0002L32.5456 18.9362Z" fill="url(#paint3_linear_122_6606)"/>
<path opacity="0.2" d="M32.4013 28.9563L15.0133 38.8563C14.6668 39.1153 14.2459 39.2553 13.8133 39.2553C13.3807 39.2553 12.9597 39.1153 12.6133 38.8563L12.5293 38.9403L12.6133 39.0243C12.959 39.2852 13.3802 39.4263 13.8133 39.4263C14.2464 39.4263 14.6676 39.2852 15.0133 39.0243L32.5453 29.0643L32.4013 28.9563Z" fill="black"/>
<path opacity="0.12" d="M12.529 38.7842C12.1378 38.3149 11.9404 37.7141 11.977 37.1042V37.2842C11.9404 37.8941 12.1378 38.4949 12.529 38.9642L12.613 38.8802L12.529 38.7842ZM38.401 25.5602L32.401 28.9562L32.509 29.0642L38.401 25.7282C38.7353 25.5712 39.0223 25.3287 39.2329 25.0254C39.4436 24.722 39.5706 24.3684 39.601 24.0002C39.5335 24.3347 39.3902 24.6492 39.1822 24.9197C38.9742 25.1901 38.7069 25.4092 38.401 25.5602Z" fill="black"/>
<path opacity="0.25" d="M15.0128 9.14368L38.4008 22.4397C38.7068 22.5907 38.974 22.8098 39.1821 23.0803C39.3901 23.3507 39.5334 23.6652 39.6008 23.9997C39.5705 23.6316 39.4435 23.278 39.2328 22.9746C39.0221 22.6712 38.7352 22.4287 38.4008 22.2717L15.0128 8.97568C13.3328 8.02768 11.9648 8.81968 11.9648 10.7397V10.9197C12.0008 8.98768 13.3448 8.19568 15.0128 9.14368Z" fill="white"/>
<defs>
<linearGradient id="paint0_linear_122_6606" x1="26.161" y1="10.4521" x2="6.02496" y2="30.5881" gradientUnits="userSpaceOnUse">
<stop stop-color="#00A0FF"/>
<stop offset="0.01" stop-color="#00A1FF"/>
<stop offset="0.26" stop-color="#00BEFF"/>
<stop offset="0.51" stop-color="#00D2FF"/>
<stop offset="0.76" stop-color="#00DFFF"/>
<stop offset="1" stop-color="#00E3FF"/>
</linearGradient>
<linearGradient id="paint1_linear_122_6606" x1="40.5965" y1="24.0003" x2="11.5685" y2="24.0003" gradientUnits="userSpaceOnUse">
<stop stop-color="#FFE000"/>
<stop offset="0.41" stop-color="#FFBD00"/>
<stop offset="0.78" stop-color="#FFA500"/>
<stop offset="1" stop-color="#FF9C00"/>
</linearGradient>
<linearGradient id="paint2_linear_122_6606" x1="29.7973" y1="26.7602" x2="2.4853" y2="54.0602" gradientUnits="userSpaceOnUse">
<stop stop-color="#FF3A44"/>
<stop offset="1" stop-color="#C31162"/>
</linearGradient>
<linearGradient id="paint3_linear_122_6606" x1="8.76158" y1="0.216206" x2="20.9536" y2="12.4082" gradientUnits="userSpaceOnUse">
<stop stop-color="#32A071"/>
<stop offset="0.07" stop-color="#2DA771"/>
<stop offset="0.48" stop-color="#15CF74"/>
<stop offset="0.8" stop-color="#06E775"/>
<stop offset="1" stop-color="#00F076"/>
</linearGradient>
</defs>
</svg>
