<svg width="24" height="24" viewBox="0 0 24 24" fill="none" xmlns="http://www.w3.org/2000/svg">
<path d="M19.1672 4.84414C18.7235 4.40046 18.0068 4.40046 17.5631 4.84414L12 10.3959L6.43686 4.83276C5.99317 4.38908 5.27645 4.38908 4.83276 4.83276C4.38908 5.27645 4.38908 5.99317 4.83276 6.43686L10.3959 12L4.83276 17.5631C4.38908 18.0068 4.38908 18.7235 4.83276 19.1672C5.27645 19.6109 5.99317 19.6109 6.43686 19.1672L12 13.6041L17.5631 19.1672C18.0068 19.6109 18.7235 19.6109 19.1672 19.1672C19.6109 18.7235 19.6109 18.0068 19.1672 17.5631L13.6041 12L19.1672 6.43686C19.5995 6.00455 19.5995 5.27645 19.1672 4.84414Z" fill="#1E293B"/>
</svg>
