<svg width="131" height="40" viewBox="0 0 131 40" fill="none" xmlns="http://www.w3.org/2000/svg">
<path d="M38.6993 17.5935L32.2159 11.1038V28.8023L38.6993 22.3126C40.001 21.0093 40.001 18.8965 38.6993 17.5935ZM16.3847 7.60533V15.837H23.3749V7.60533H28.7208L22.2373 1.11562C20.9352 -0.187691 18.8244 -0.187691 17.5227 1.11562L11.0388 7.60533H16.3847ZM7.54375 28.8023V11.1038L1.06027 17.5935C-0.241443 18.8965 -0.241443 21.0093 1.06027 22.3126L7.54375 28.8023ZM23.3749 32.3008V24.0691H16.3847V32.3008H11.0388L17.5227 38.7908C18.8244 40.0938 20.9352 40.0938 22.2373 38.7908L28.7208 32.3008H23.3749Z" fill="#EF4444"/>
<path d="M60.3475 4.53862V17.6699H54.6082L51.2303 7.65738H51.0334V17.6699H47.5566V7.95301H45.6875V4.53862H52.2793C52.9028 4.53862 53.4275 4.89959 53.6244 5.4905L56.6742 14.5512H56.8711V4.53862H60.3475Z" fill="#EF4444"/>
<path d="M72.2533 11.071C72.2533 9.29827 70.9086 7.95222 69.2032 7.95222C67.4318 7.95222 66.0874 9.29827 66.0874 11.071C66.0874 12.8765 67.4318 14.2554 69.2032 14.2554C70.9086 14.2554 72.2533 12.8765 72.2533 11.071ZM62.2832 11.071C62.2832 7.26277 65.3002 4.34109 69.2032 4.34109C73.0734 4.34109 76.0579 7.26277 76.0579 11.071C76.0579 14.9117 73.0734 17.8662 69.2032 17.8662C65.3002 17.8662 62.2832 14.9117 62.2832 11.071Z" fill="#EF4444"/>
<path d="M76.1406 4.53862H80.1417L83.52 14.3212H83.7166L87.1273 4.53862H91.0303L86.242 17.6699H80.8961L76.1406 4.53862Z" fill="#EF4444"/>
<path d="M98.2399 12.3184L96.7314 7.91932H96.5345L94.9932 12.3184H98.2399ZM99.2565 15.273H93.9434L93.0909 17.6694H89.2207L94.3368 4.53813H99.0267L104.11 17.6694H100.076L99.2565 15.273Z" fill="#EF4444"/>
<path d="M55.7955 26.2533C55.7955 25.5314 55.2708 25.0715 54.4836 25.0715H51.3682V27.4351H54.4836C55.2708 27.4351 55.7955 26.9756 55.7955 26.2533ZM59.6001 26.1876C59.6001 28.8469 57.665 30.521 54.7461 30.521H51.3682V34.9858H47.6289V25.2686H45.7598V21.8545H54.7461C57.665 21.8545 59.6001 23.5287 59.6001 26.1876Z" fill="#EF4444"/>
<path d="M70.8275 28.387C70.8275 26.6143 69.4828 25.2683 67.7774 25.2683C66.0064 25.2683 64.6616 26.6143 64.6616 28.387C64.6616 30.1926 66.0064 31.5715 67.7774 31.5715C69.4828 31.5715 70.8275 30.1926 70.8275 28.387ZM60.8574 28.387C60.8574 24.5788 63.8747 21.6575 67.7774 21.6575C71.6476 21.6575 74.6321 24.5788 74.6321 28.387C74.6321 32.2281 71.6476 35.1826 67.7774 35.1826C63.8747 35.1826 60.8574 32.2281 60.8574 28.387Z" fill="#EF4444"/>
<path d="M75.9121 30.8492H79.7823C80.1101 31.6372 80.9298 31.9982 82.2421 31.9982C83.6522 31.9982 84.4066 31.6043 84.4066 31.0463C84.4066 30.324 83.7502 30.0941 81.5205 29.8645C78.1094 29.5031 76.2399 27.9275 76.2399 25.6624C76.2399 23.266 78.5688 21.6575 82.0124 21.6575C85.5544 21.6575 87.8502 23.3317 88.2436 25.9906H84.0456C83.8159 25.3011 83.0946 24.9073 81.9796 24.9073C80.5692 24.9073 80.0441 25.2686 80.0441 25.7938C80.0441 26.3519 80.7005 26.5815 82.5371 26.7457C86.2432 27.1067 88.2108 28.5513 88.2108 31.0134C88.2108 33.607 85.7185 35.1826 82.1105 35.1826C78.7654 35.1826 76.404 33.5741 75.9121 30.8492Z" fill="#EF4444"/>
<path d="M102.555 21.8545V34.9858H98.8159V30.1926H94.1588V34.9858H90.4199V21.8545H94.1588V26.6471H98.8159V21.8545H102.555Z" fill="#EF4444"/>
<path d="M117.094 25.5314H112.666V34.9858H108.927V25.5314H104.5V21.8545H117.094V25.5314Z" fill="#EF4444"/>
<path d="M125.066 29.6348L123.558 25.2357H123.361L121.82 29.6348H125.066ZM126.083 32.5894H120.77L119.917 34.9858H116.047L121.163 21.8545H125.853L130.937 34.9858H126.903L126.083 32.5894Z" fill="#EF4444"/>
</svg>
