<svg width="24" height="24" viewBox="0 0 24 24" fill="none" xmlns="http://www.w3.org/2000/svg">
<path d="M15.5006 14.0001H14.7106L14.4306 13.7301C15.6306 12.3301 16.2506 10.4201 15.9106 8.39014C15.4406 5.61014 13.1206 3.39014 10.3206 3.05014C6.09063 2.53014 2.53063 6.09014 3.05063 10.3201C3.39063 13.1201 5.61063 15.4401 8.39063 15.9101C10.4206 16.2501 12.3306 15.6301 13.7306 14.4301L14.0006 14.7101V15.5001L18.2506 19.7501C18.6606 20.1601 19.3306 20.1601 19.7406 19.7501C20.1506 19.3401 20.1506 18.6701 19.7406 18.2601L15.5006 14.0001ZM9.50063 14.0001C7.01063 14.0001 5.00063 11.9901 5.00063 9.50014C5.00063 7.01014 7.01063 5.00014 9.50063 5.00014C11.9906 5.00014 14.0006 7.01014 14.0006 9.50014C14.0006 11.9901 11.9906 14.0001 9.50063 14.0001Z" fill="#64748B"/>
</svg>
