<svg width="136" height="16" viewBox="0 0 136 16" fill="none" xmlns="http://www.w3.org/2000/svg">
<path d="M16 8C16 3.58172 12.4183 0 8 0C3.58172 0 0 3.58172 0 8C0 11.993 2.92547 15.3027 6.75 15.9028V10.3125H4.71875V8H6.75V6.2375C6.75 4.2325 7.94438 3.125 9.77172 3.125C10.6467 3.125 11.5625 3.28125 11.5625 3.28125V5.25H10.5538C9.56 5.25 9.25 5.86672 9.25 6.5V8H11.4688L11.1141 10.3125H9.25V15.9028C13.0745 15.3027 16 11.993 16 8Z" fill="#64748B"/>
<path d="M48 1.44062C50.1375 1.44062 50.3906 1.45 51.2313 1.4875C52.0125 1.52187 52.4344 1.65313 52.7156 1.7625C53.0875 1.90625 53.3563 2.08125 53.6344 2.35938C53.9156 2.64062 54.0875 2.90625 54.2313 3.27813C54.3406 3.55938 54.4719 3.98438 54.5063 4.7625C54.5438 5.60625 54.5531 5.85938 54.5531 7.99375C54.5531 10.1313 54.5438 10.3844 54.5063 11.225C54.4719 12.0063 54.3406 12.4281 54.2313 12.7094C54.0875 13.0813 53.9125 13.35 53.6344 13.6281C53.3531 13.9094 53.0875 14.0813 52.7156 14.225C52.4344 14.3344 52.0094 14.4656 51.2313 14.5C50.3875 14.5375 50.1344 14.5469 48 14.5469C45.8625 14.5469 45.6094 14.5375 44.7688 14.5C43.9875 14.4656 43.5656 14.3344 43.2844 14.225C42.9125 14.0813 42.6438 13.9063 42.3656 13.6281C42.0844 13.3469 41.9125 13.0813 41.7688 12.7094C41.6594 12.4281 41.5281 12.0031 41.4938 11.225C41.4563 10.3813 41.4469 10.1281 41.4469 7.99375C41.4469 5.85625 41.4563 5.60313 41.4938 4.7625C41.5281 3.98125 41.6594 3.55938 41.7688 3.27813C41.9125 2.90625 42.0875 2.6375 42.3656 2.35938C42.6469 2.07812 42.9125 1.90625 43.2844 1.7625C43.5656 1.65313 43.9906 1.52187 44.7688 1.4875C45.6094 1.45 45.8625 1.44062 48 1.44062ZM48 0C45.8281 0 45.5563 0.009375 44.7031 0.046875C43.8531 0.084375 43.2688 0.221875 42.7625 0.41875C42.2344 0.625 41.7875 0.896875 41.3438 1.34375C40.8969 1.7875 40.625 2.23438 40.4188 2.75938C40.2219 3.26875 40.0844 3.85 40.0469 4.7C40.0094 5.55625 40 5.82812 40 8C40 10.1719 40.0094 10.4438 40.0469 11.2969C40.0844 12.1469 40.2219 12.7313 40.4188 13.2375C40.625 13.7656 40.8969 14.2125 41.3438 14.6562C41.7875 15.1 42.2344 15.375 42.7594 15.5781C43.2688 15.775 43.85 15.9125 44.7 15.95C45.5531 15.9875 45.825 15.9969 47.9969 15.9969C50.1688 15.9969 50.4406 15.9875 51.2938 15.95C52.1438 15.9125 52.7281 15.775 53.2344 15.5781C53.7594 15.375 54.2063 15.1 54.65 14.6562C55.0938 14.2125 55.3688 13.7656 55.5719 13.2406C55.7688 12.7313 55.9063 12.15 55.9438 11.3C55.9813 10.4469 55.9906 10.175 55.9906 8.00313C55.9906 5.83125 55.9813 5.55938 55.9438 4.70625C55.9063 3.85625 55.7688 3.27188 55.5719 2.76562C55.375 2.23438 55.1031 1.7875 54.6563 1.34375C54.2125 0.9 53.7656 0.625 53.2406 0.421875C52.7313 0.225 52.15 0.0875 51.3 0.05C50.4438 0.009375 50.1719 0 48 0Z" fill="#64748B"/>
<path d="M48 3.89062C45.7313 3.89062 43.8906 5.73125 43.8906 8C43.8906 10.2688 45.7313 12.1094 48 12.1094C50.2688 12.1094 52.1094 10.2688 52.1094 8C52.1094 5.73125 50.2688 3.89062 48 3.89062ZM48 10.6656C46.5281 10.6656 45.3344 9.47188 45.3344 8C45.3344 6.52813 46.5281 5.33437 48 5.33437C49.4719 5.33437 50.6656 6.52813 50.6656 8C50.6656 9.47188 49.4719 10.6656 48 10.6656Z" fill="#64748B"/>
<path d="M53.2312 3.72818C53.2312 4.25943 52.8 4.68755 52.2719 4.68755C51.7406 4.68755 51.3125 4.2563 51.3125 3.72818C51.3125 3.19692 51.7438 2.7688 52.2719 2.7688C52.8 2.7688 53.2312 3.20005 53.2312 3.72818Z" fill="#64748B"/>
<path d="M95.8406 4.79995C95.8406 4.79995 95.6844 3.69683 95.2031 3.21245C94.5938 2.57495 93.9125 2.57183 93.6 2.53433C91.3625 2.37183 88.0031 2.37183 88.0031 2.37183H87.9969C87.9969 2.37183 84.6375 2.37183 82.4 2.53433C82.0875 2.57183 81.4062 2.57495 80.7969 3.21245C80.3156 3.69683 80.1625 4.79995 80.1625 4.79995C80.1625 4.79995 80 6.09683 80 7.39058V8.60308C80 9.89683 80.1594 11.1937 80.1594 11.1937C80.1594 11.1937 80.3156 12.2968 80.7937 12.7812C81.4031 13.4187 82.2031 13.3968 82.5594 13.4656C83.8406 13.5875 88 13.625 88 13.625C88 13.625 91.3625 13.6187 93.6 13.4593C93.9125 13.4218 94.5938 13.4187 95.2031 12.7812C95.6844 12.2968 95.8406 11.1937 95.8406 11.1937C95.8406 11.1937 96 9.89995 96 8.60308V7.39058C96 6.09683 95.8406 4.79995 95.8406 4.79995ZM86.3469 10.075V5.57808L90.6687 7.83433L86.3469 10.075Z" fill="#64748B"/>
<path fill-rule="evenodd" clip-rule="evenodd" d="M136 8C136 12.4183 132.418 16 128 16C123.582 16 120 12.4183 120 8C120 3.58172 123.582 0 128 0C132.418 0 136 3.58172 136 8ZM128.286 5.90587C127.508 6.22952 125.953 6.89938 123.621 7.91547C123.242 8.06607 123.044 8.2134 123.026 8.35745C122.995 8.60092 123.3 8.69679 123.715 8.82733C123.772 8.84509 123.83 8.86349 123.89 8.88299C124.299 9.01577 124.848 9.1711 125.134 9.17727C125.393 9.18287 125.682 9.07605 126.001 8.85681C128.18 7.38592 129.305 6.64246 129.376 6.62643C129.425 6.61512 129.494 6.60091 129.541 6.64248C129.588 6.68406 129.583 6.7628 129.578 6.78392C129.548 6.91268 128.352 8.02531 127.732 8.6011C127.539 8.7806 127.402 8.90793 127.374 8.93701C127.311 9.00215 127.248 9.06377 127.186 9.12299C126.807 9.48881 126.522 9.76313 127.202 10.2111C127.529 10.4264 127.79 10.6044 128.051 10.782C128.336 10.976 128.62 11.1694 128.987 11.4104C129.081 11.4717 129.17 11.5355 129.257 11.5976C129.589 11.8339 129.887 12.0462 130.254 12.0123C130.468 11.9927 130.689 11.7917 130.801 11.1922C131.066 9.77535 131.587 6.70556 131.708 5.44057C131.718 5.32974 131.705 5.1879 131.694 5.12563C131.684 5.06337 131.661 4.97466 131.58 4.90899C131.484 4.83121 131.337 4.81481 131.27 4.81597C130.969 4.82128 130.508 4.9818 128.286 5.90587Z" fill="#64748B"/>
</svg>
