<svg width="164" height="138" viewBox="0 0 164 138" fill="none" xmlns="http://www.w3.org/2000/svg">
<path d="M98.8089 0L144.34 26.9475V80.8425L98.8089 107.79L53.2773 80.84V26.95L98.8089 0Z" fill="#E2E8F0"/>
<path d="M144.34 26.9475L98.8089 53.895L53.2773 26.945L98.8089 0L144.34 26.9475Z" fill="#CBD5E1"/>
<path d="M98.8086 53.8952V107.79L144.34 80.8402V26.9502L98.8086 53.8952Z" fill="#A5A8BB"/>
<path d="M154.506 40.9648L200.038 67.9098V121.805L154.506 148.755L108.975 121.805V67.9098L154.506 40.9648Z" fill="#E2E8F0"/>
<path d="M200.038 67.9098L154.506 94.8598L108.975 67.9098L154.506 40.9648L200.038 67.9098Z" fill="#CBD5E1"/>
<path d="M154.506 94.8577V148.753L200.037 121.805V67.9102L154.506 94.8577Z" fill="#94A3B8"/>
<path d="M185.113 76.5671L185.206 95.3446L170.374 104.125V85.4671L124.75 58.3996L139.581 49.6221L185.113 76.5671Z" fill="white"/>
<path d="M45.5315 40.9658L91.063 67.9108V121.806L45.5315 148.756L0 121.803V67.9108L45.5315 40.9658Z" fill="#E2E8F0"/>
<path d="M91.063 67.9099L45.5315 94.8599L0 67.9074L45.5315 40.9624L91.063 67.9099Z" fill="#CBD5E1"/>
<path d="M45.5312 94.8572V148.752L91.0628 121.805V67.9097L45.5312 94.8572Z" fill="#94A3B8"/>
<path d="M76.1376 76.5676L76.2281 95.3451L61.3968 104.125V85.4676L15.7773 58.4001L30.6086 49.6226L76.1376 76.5676Z" fill="white"/>
<path d="M76.2297 76.6899V95.3449L61.3984 104.125V85.4674L76.2297 76.6899Z" fill="#F8FAFC"/>
</svg>
