<svg width="16" height="16" viewBox="0 0 16 16" fill="none" xmlns="http://www.w3.org/2000/svg">
<path fill-rule="evenodd" clip-rule="evenodd" d="M16 8C16 12.4183 12.4183 16 8 16C3.58172 16 0 12.4183 0 8C0 3.58172 3.58172 0 8 0C12.4183 0 16 3.58172 16 8ZM8.28611 5.90587C7.508 6.22952 5.95286 6.89938 3.62069 7.91547C3.24199 8.06607 3.0436 8.2134 3.02554 8.35745C2.99502 8.60092 3.29991 8.69679 3.71508 8.82733C3.77155 8.84509 3.83007 8.86349 3.89006 8.88299C4.29852 9.01577 4.84798 9.1711 5.13362 9.17727C5.39273 9.18287 5.68192 9.07605 6.00119 8.85681C8.1802 7.38592 9.30502 6.64246 9.37564 6.62643C9.42546 6.61512 9.4945 6.60091 9.54127 6.64248C9.58805 6.68406 9.58345 6.7628 9.5785 6.78392C9.5483 6.91268 8.35152 8.02531 7.73218 8.6011C7.5391 8.7806 7.40215 8.90793 7.37415 8.93701C7.31143 9.00215 7.24751 9.06377 7.18608 9.12299C6.80661 9.48881 6.52204 9.76313 7.20184 10.2111C7.52852 10.4264 7.78993 10.6044 8.05071 10.782C8.33554 10.976 8.61962 11.1694 8.98717 11.4104C9.08082 11.4717 9.17025 11.5355 9.25736 11.5976C9.58881 11.8339 9.8866 12.0462 10.2545 12.0123C10.4683 11.9927 10.6891 11.7917 10.8012 11.1922C11.0662 9.77535 11.5872 6.70556 11.7076 5.44057C11.7181 5.32974 11.7049 5.1879 11.6942 5.12563C11.6835 5.06337 11.6613 4.97466 11.5803 4.90899C11.4845 4.83121 11.3365 4.81481 11.2703 4.81597C10.9694 4.82128 10.5078 4.9818 8.28611 5.90587Z" fill="#64748B"/>
</svg>
