<svg width="39" height="39" viewBox="0 0 39 39" fill="none" xmlns="http://www.w3.org/2000/svg">
<path d="M37.5183 17.1537L31.2328 10.8263V28.0823L37.5183 21.7549C38.7803 20.4841 38.7803 18.4241 37.5183 17.1537ZM15.885 7.41526V15.4412H22.6618V7.41526H27.8444L21.5589 1.08779C20.2966 -0.182941 18.2502 -0.182941 16.9883 1.08779L10.7024 7.41526H15.885ZM7.31402 28.0823V10.8263L1.0285 17.1537C-0.233459 18.4241 -0.233459 20.4841 1.0285 21.7549L7.31402 28.0823ZM22.6618 31.4933V23.4674H15.885V31.4933H10.7024L16.9883 37.8211C18.2502 39.0915 20.2966 39.0915 21.5589 37.8211L27.8444 31.4933H22.6618Z" fill="#EF4444"/>
</svg>
